<?xml version="1.0" encoding="utf-8"?>
<!-- Generator: Adobe Illustrator 23.0.3, SVG Export Plug-In . SVG Version: 6.00 Build 0)  -->
<svg version="1.1" id="Capa_1" xmlns="http://www.w3.org/2000/svg" xmlns:xlink="http://www.w3.org/1999/xlink" x="0px" y="0px"
	 viewBox="0 0 284.9 284.9" style="enable-background:new 0 0 284.9 284.9;" xml:space="preserve">
<g>
	<path d="M28.2,1.7l-1.4-1.4C26.6,0.1,26.4,0,26.1,0c-0.2,0-0.5,0.1-0.7,0.3L14.2,11.5L3,0.3C2.8,0.1,2.6,0,2.4,0
		C2.1,0,1.9,0.1,1.7,0.3L0.3,1.7C0.1,1.9,0,2.1,0,2.4C0,2.6,0.1,2.8,0.3,3l13.3,13.3c0.2,0.2,0.4,0.3,0.7,0.3c0.2,0,0.5-0.1,0.7-0.3
		L28.2,3c0.2-0.2,0.3-0.4,0.3-0.7C28.5,2.1,28.4,1.9,28.2,1.7z"/>
</g>
</svg>
